<svg width="140" height="40" viewBox="0 0 140 40" fill="none" xmlns="http://www.w3.org/2000/svg">
<path d="M14.8664 0.558174C15.3491 0.423973 16.194 0.249511 16.7438 0.142149C17.4412 0.021368 18.5945 -0.0188925 20.4987 0.00794783C22.4299 0.0482083 23.5429 0.128729 24.2537 0.289771C24.8035 0.410552 25.8093 0.692376 26.4664 0.907098C27.1235 1.13524 28.1829 1.55127 28.8132 1.84651C29.4435 2.14175 30.5566 2.78592 31.2942 3.28246C32.2061 3.87295 33.185 4.71842 34.3249 5.84571C35.3978 6.93275 36.2829 7.9661 36.7924 8.74447C37.235 9.41547 37.8787 10.5293 38.214 11.2272C38.5626 11.925 39.0186 13.0792 39.2466 13.777C39.4611 14.4749 39.7562 15.5619 39.8903 16.1926C40.0914 17.0918 40.1451 17.9104 40.1317 20.0174C40.1317 22.2586 40.0914 22.9296 39.85 24.0434C39.6891 24.7815 39.3673 25.9357 39.1259 26.5933C38.8979 27.2509 38.4419 28.311 38.1335 28.9418C37.8251 29.5725 37.1814 30.6596 36.712 31.3574C36.189 32.1492 35.2771 33.2228 34.3115 34.1757C33.3594 35.1419 32.2865 36.0545 31.4953 36.5779C30.798 37.0476 29.7117 37.6917 29.0814 38.0004C28.4511 38.3091 27.3917 38.7653 26.7346 38.9935C26.0775 39.2351 24.9242 39.5571 24.1866 39.7182C23.0601 39.9597 22.4164 40 20.0964 40C17.7764 40 17.1327 39.9597 16.0062 39.7182C15.2687 39.5571 14.1288 39.2351 13.4583 38.9935C12.7877 38.7653 11.7685 38.3359 11.1785 38.0407C10.5884 37.7454 9.67651 37.222 9.16691 36.8865C8.65732 36.5644 7.74541 35.88 7.15535 35.3835C6.56529 34.8869 5.6802 34.028 5.19742 33.4912C4.70123 32.941 3.96366 32.015 3.53452 31.4245C3.1188 30.834 2.4751 29.747 2.11302 29.0089C1.73752 28.2708 1.4559 27.5461 1.48272 27.3985C1.52296 27.1569 1.63024 27.1301 4.05753 27.1301L4.64759 28.2037C4.96944 28.7942 5.57291 29.747 6.00205 30.3375C6.41777 30.9146 7.28945 31.9076 7.95997 32.5518C8.6305 33.196 9.67651 34.0549 10.3068 34.4709C10.9371 34.8869 11.9563 35.4774 12.5866 35.7727C13.2169 36.0545 14.1154 36.4302 14.5981 36.5913C15.0809 36.7523 16.0733 37.0073 16.8109 37.1549C17.763 37.3428 18.7017 37.4233 20.0294 37.4233C21.1827 37.4367 22.3762 37.3428 23.1138 37.222C23.7709 37.1012 24.8035 36.8463 25.3936 36.6584C25.9836 36.4705 27.0699 36.0142 27.8074 35.6653C28.545 35.3029 29.6849 34.6185 30.342 34.1488C30.9991 33.6925 31.9647 32.8739 32.4877 32.3505C33.0107 31.8271 33.8287 30.8609 34.2981 30.2033C34.7541 29.5457 35.3978 28.4989 35.7196 27.8682C36.0281 27.2374 36.4706 26.1772 36.6986 25.5197C36.9131 24.8621 37.1948 23.7348 37.3155 23.0369C37.4362 22.2854 37.53 21.0105 37.53 19.9503C37.53 18.9169 37.4362 17.6152 37.3155 16.9308C37.2082 16.2598 36.9266 15.1861 36.712 14.5151C36.484 13.8441 36.0281 12.7705 35.7062 12.0995C35.3709 11.4285 34.7541 10.4086 34.3383 9.81808C33.9092 9.22759 33.0643 8.2345 32.4341 7.60375C31.8038 6.97301 30.6907 6.06044 29.9531 5.56389C29.2155 5.06735 28.1561 4.45002 27.6063 4.19503C27.0565 3.94005 26.1177 3.57771 25.5277 3.38983C24.9376 3.18852 23.9452 2.93354 23.3149 2.81276C22.5505 2.65172 21.5045 2.58462 20.0964 2.58462C18.6883 2.58462 17.6423 2.65172 16.8779 2.81276C16.2476 2.93354 15.2553 3.18852 14.6652 3.38983C14.0751 3.57771 13.0828 3.99373 12.4525 4.28898C11.8222 4.58422 10.8298 5.16129 10.2398 5.56389C9.64969 5.9665 8.77801 6.6375 8.30865 7.05353C7.83928 7.46955 7.11512 8.2345 6.69939 8.77131C6.28367 9.29469 5.85453 9.75098 5.74725 9.77782C5.63997 9.80466 5.10355 9.57652 4.58054 9.28127C4.04412 8.98603 3.60158 8.66395 3.60158 8.57C3.60158 8.48948 3.95025 7.9661 4.39279 7.42929C4.82193 6.90591 5.70702 5.95307 6.36413 5.33575C7.02124 4.71842 7.97338 3.91321 8.49639 3.55087C9.00599 3.18852 9.9179 2.62488 10.508 2.30279C11.098 1.98071 12.1172 1.511 12.7877 1.2426C13.4583 0.987619 14.3836 0.678955 14.8664 0.558174Z" fill="#40DFE9"/>
<path fill-rule="evenodd" clip-rule="evenodd" d="M2.30095 10.6904L3.34696 11.2675C3.93702 11.5762 4.40639 11.9117 4.40639 12.0056C4.40639 12.0861 4.25887 12.4485 4.08454 12.8108C3.9102 13.1597 3.64199 13.8307 3.46765 14.3139C3.30673 14.797 3.06534 15.6961 2.91783 16.3269C2.77031 16.9576 2.6228 18.246 2.58256 19.2122C2.51551 20.5274 2.55574 21.3326 2.73008 22.5002C2.85077 23.3456 3.0117 24.1777 3.07875 24.3521C3.19945 24.6474 3.19945 24.6474 1.8584 24.6474C1.12083 24.6474 0.517355 24.6205 0.517355 24.5803C0.517355 24.54 0.38325 23.708 0.235735 22.7283C0.00775741 21.3326 -0.032474 20.6348 0.0211679 19.4135C0.0748097 18.5681 0.195504 17.32 0.316198 16.6624C0.423482 15.9914 0.705101 14.8507 0.933079 14.1126C1.16106 13.3745 1.56337 12.3008 1.81817 11.7372L2.30095 10.6904ZM9.38167 14.797C9.78398 14.8373 10.3875 14.9715 10.7227 15.0922C11.0446 15.2264 11.6212 15.5351 11.9967 15.8035C12.3588 16.0719 12.8282 16.5148 13.0293 16.81C13.2305 17.0918 13.5255 17.6286 13.6864 17.991C13.9278 18.5278 13.9949 18.9036 13.9949 19.8027C13.9815 20.6884 13.9144 21.1313 13.6596 21.7486C13.4719 22.2452 13.083 22.8491 12.6538 23.292C12.1979 23.7885 11.6749 24.1777 11.1116 24.4327C10.3338 24.8084 10.1192 24.8353 8.9123 24.8353C7.73218 24.8353 7.47738 24.795 6.83368 24.4863C6.41795 24.285 5.80107 23.8422 5.42558 23.4798C5.0635 23.1175 4.60754 22.4599 4.39298 22.017C4.165 21.5339 3.97725 20.8763 3.92361 20.3395C3.86997 19.7356 3.9102 19.2122 4.07113 18.5949C4.19182 18.1252 4.48685 17.4273 4.72824 17.065C4.95622 16.7027 5.39876 16.2195 5.69379 15.978C5.98882 15.7364 6.43137 15.4412 6.69957 15.307C6.95437 15.1728 7.49079 14.9849 7.90652 14.8909C8.30883 14.797 8.96594 14.7567 9.38167 14.797ZM6.95437 17.9373C6.76663 18.1923 6.53865 18.7291 6.43137 19.1317C6.28385 19.749 6.28385 20.004 6.43137 20.6079C6.56547 21.185 6.73981 21.4802 7.18235 21.9231C7.58466 22.3123 7.93334 22.5136 8.2686 22.5807C8.55022 22.6209 9.0464 22.6209 9.38167 22.5807C9.70352 22.5404 10.1863 22.366 10.4545 22.1915C10.7093 22.017 11.058 21.601 11.2189 21.2789C11.4335 20.8495 11.5139 20.4469 11.5273 19.843C11.5273 19.2793 11.4335 18.8365 11.2725 18.501C11.125 18.2191 10.8702 17.8702 10.6959 17.7092C10.5216 17.5481 10.2131 17.3468 10.012 17.2663C9.8108 17.1858 9.32802 17.1321 8.93912 17.1321C8.55022 17.1321 8.02721 17.2126 7.77241 17.3066C7.51761 17.4139 7.15553 17.6957 6.95437 17.9373ZM19.9089 14.797C20.271 14.8373 20.7806 14.958 21.0488 15.0654C21.3036 15.1728 21.7059 15.4143 21.9473 15.5888C22.1887 15.7632 22.4166 15.9109 22.4569 15.9109C22.4837 15.9109 22.5373 15.723 22.591 15.0386L24.9378 14.9715L24.8707 25.2379L24.5221 25.976C24.3209 26.392 23.9588 26.9288 23.7174 27.1704C23.4626 27.4254 22.9262 27.7877 22.5239 27.9756C21.8266 28.3111 21.6656 28.3245 19.9089 28.3245C18.2594 28.3245 17.9509 28.2842 17.3877 28.0293C17.039 27.8548 16.5026 27.5059 16.2076 27.2241C15.8991 26.9422 15.5505 26.5396 15.4164 26.3115C15.2823 26.0968 15.1348 25.7747 15.0945 25.6136C15.0141 25.3184 15.0275 25.305 16.3149 25.305C17.4682 25.305 17.6559 25.3318 17.8973 25.5734C18.0448 25.7344 18.3667 25.9223 18.6349 26.0162C18.8897 26.0968 19.4931 26.1639 19.9759 26.1639C20.566 26.1639 21.0085 26.0833 21.3706 25.9089C21.6656 25.7613 22.0143 25.4929 22.1484 25.305C22.2959 25.1305 22.4434 24.6474 22.591 23.5335L21.8534 24.0301C21.3974 24.3253 20.8744 24.54 20.5123 24.5937C20.1771 24.634 19.5468 24.6474 19.1042 24.6071C18.6215 24.5669 18.018 24.4058 17.6291 24.2045C17.2536 24.0166 16.6367 23.5335 16.2478 23.1175C15.6712 22.5002 15.4968 22.1781 15.2554 21.3863C15.0275 20.6213 14.9872 20.1919 15.0409 19.333C15.0811 18.6083 15.2018 18.0313 15.4298 17.5213C15.6175 17.1187 16.0064 16.5148 16.3015 16.1793C16.6099 15.8572 17.1195 15.4412 17.4413 15.2801C17.7632 15.1191 18.2996 14.9312 18.6349 14.8507C18.9567 14.7836 19.5334 14.7567 19.9089 14.797ZM18.2326 17.7897C17.8973 18.1252 17.6291 18.5412 17.5486 18.9036C17.4548 19.2122 17.4279 19.7759 17.4816 20.1382C17.5218 20.514 17.6961 21.0239 17.8705 21.2789C18.0448 21.5473 18.3801 21.8828 18.6349 22.0439C18.8897 22.2049 19.3725 22.3794 19.7077 22.4331C20.043 22.4867 20.5392 22.4599 20.8476 22.366C21.1426 22.2854 21.5852 22.0305 21.84 21.7889C22.0814 21.5473 22.3764 21.1581 22.4703 20.9166C22.5776 20.675 22.658 20.1785 22.658 19.8027C22.658 19.4404 22.5641 18.917 22.4434 18.6352C22.3362 18.3533 22.1082 17.991 21.9473 17.8165C21.7863 17.6421 21.4913 17.4273 21.317 17.3334C21.1292 17.2395 20.7403 17.1187 20.4453 17.0784C20.1503 17.0516 19.6541 17.065 19.3322 17.1321C18.9433 17.2126 18.5946 17.4273 18.2326 17.7897ZM31.576 14.797C31.938 14.8373 32.5147 14.9715 32.85 15.0788C33.1718 15.1862 33.6546 15.4143 33.9228 15.5754C34.1776 15.7498 34.6201 16.1122 34.9018 16.4074C35.17 16.6892 35.5589 17.226 35.7332 17.5884C35.921 17.9642 36.1221 18.6217 36.1758 19.0646C36.2428 19.5075 36.2294 20.2322 36.1758 20.675C36.0953 21.1447 35.8673 21.8157 35.6259 22.272C35.3845 22.7149 34.9152 23.3054 34.5933 23.614C34.2581 23.9093 33.6546 24.3119 33.2523 24.4998C32.6086 24.795 32.327 24.8353 31.1737 24.8353C29.9801 24.8353 29.7387 24.795 29.0548 24.4729C28.6391 24.2716 27.9954 23.8153 27.6467 23.4664C27.2846 23.1175 26.8153 22.4599 26.6007 22.017C26.2386 21.2923 26.2118 21.091 26.2118 19.8698C26.2118 18.6352 26.2386 18.4607 26.6275 17.6555C26.9091 17.0918 27.298 16.5685 27.7674 16.139C28.1697 15.7901 28.733 15.3741 29.028 15.2399C29.323 15.0922 29.8594 14.9178 30.2349 14.8507C30.597 14.7836 31.2005 14.7702 31.576 14.797ZM29.2694 17.9507C29.1084 18.1252 28.8805 18.4875 28.7598 18.7694C28.6525 19.0512 28.5586 19.494 28.5586 19.7759C28.5586 20.0577 28.6123 20.5006 28.6927 20.7824C28.7598 21.0642 29.0146 21.5071 29.256 21.7755C29.4973 22.0439 29.8863 22.3525 30.1276 22.4465C30.369 22.5404 30.8384 22.6209 31.1737 22.6209C31.4955 22.6209 31.9649 22.5404 32.2063 22.4465C32.4476 22.3525 32.8231 22.0573 33.0511 21.8157C33.2791 21.5608 33.5473 21.1045 33.6412 20.8092C33.7351 20.514 33.8021 19.9369 33.7619 19.5343C33.7351 19.0109 33.6144 18.6217 33.3461 18.2191C33.145 17.9105 32.7427 17.5481 32.4476 17.3871C32.099 17.2126 31.643 17.1187 31.1334 17.1187C30.6238 17.1321 30.2349 17.2126 29.9667 17.3737C29.7387 17.5079 29.4303 17.7763 29.2694 17.9507Z" fill="white"/>
<path d="M57.0278 26.216C55.7798 26.216 54.6998 25.946 53.7878 25.406C52.8878 24.854 52.1918 24.092 51.6998 23.12C51.2078 22.136 50.9618 21.002 50.9618 19.718C50.9618 18.422 51.2078 17.288 51.6998 16.316C52.1918 15.332 52.8878 14.564 53.7878 14.012C54.6998 13.46 55.7798 13.184 57.0278 13.184C58.5038 13.184 59.7098 13.544 60.6458 14.264C61.5818 14.984 62.1758 15.992 62.4278 17.288H60.3038C60.1358 16.556 59.7758 15.974 59.2238 15.542C58.6718 15.11 57.9338 14.894 57.0098 14.894C55.7498 14.894 54.7538 15.326 54.0218 16.19C53.2898 17.042 52.9238 18.218 52.9238 19.718C52.9238 21.206 53.2898 22.376 54.0218 23.228C54.7538 24.08 55.7498 24.506 57.0098 24.506C57.9338 24.506 58.6718 24.302 59.2238 23.894C59.7758 23.486 60.1358 22.928 60.3038 22.22H62.4278C62.1758 23.468 61.5818 24.446 60.6458 25.154C59.7098 25.862 58.5038 26.216 57.0278 26.216ZM68.6291 26.216C67.7771 26.216 67.0091 26.024 66.3251 25.64C65.6531 25.244 65.1191 24.698 64.7231 24.002C64.3271 23.294 64.1291 22.472 64.1291 21.536C64.1291 20.6 64.3271 19.784 64.7231 19.088C65.1311 18.38 65.6771 17.834 66.3611 17.45C67.0451 17.054 67.8071 16.856 68.6471 16.856C69.4991 16.856 70.2611 17.054 70.9331 17.45C71.6171 17.834 72.1571 18.38 72.5531 19.088C72.9611 19.784 73.1651 20.6 73.1651 21.536C73.1651 22.472 72.9611 23.294 72.5531 24.002C72.1571 24.698 71.6171 25.244 70.9331 25.64C70.2491 26.024 69.4811 26.216 68.6291 26.216ZM68.6291 24.578C69.0851 24.578 69.5051 24.464 69.8891 24.236C70.2851 24.008 70.6031 23.672 70.8431 23.228C71.0831 22.772 71.2031 22.208 71.2031 21.536C71.2031 20.864 71.0831 20.306 70.8431 19.862C70.6151 19.406 70.3031 19.064 69.9071 18.836C69.5231 18.608 69.1031 18.494 68.6471 18.494C68.1911 18.494 67.7651 18.608 67.3691 18.836C66.9851 19.064 66.6731 19.406 66.4331 19.862C66.1931 20.306 66.0731 20.864 66.0731 21.536C66.0731 22.208 66.1931 22.772 66.4331 23.228C66.6731 23.672 66.9851 24.008 67.3691 24.236C67.7531 24.464 68.1731 24.578 68.6291 24.578ZM75.2285 26V17.072H76.9205L77.0825 18.332C77.3705 17.876 77.7485 17.516 78.2165 17.252C78.6965 16.988 79.2485 16.856 79.8725 16.856C81.2885 16.856 82.2725 17.414 82.8245 18.53C83.1485 18.014 83.5805 17.606 84.1205 17.306C84.6725 17.006 85.2665 16.856 85.9025 16.856C87.0185 16.856 87.8945 17.192 88.5305 17.864C89.1665 18.536 89.4845 19.538 89.4845 20.87V26H87.5765V21.068C87.5765 19.34 86.9165 18.476 85.5965 18.476C84.9245 18.476 84.3725 18.728 83.9405 19.232C83.5205 19.736 83.3105 20.456 83.3105 21.392V26H81.4025V21.068C81.4025 19.34 80.7365 18.476 79.4045 18.476C78.7445 18.476 78.1985 18.728 77.7665 19.232C77.3465 19.736 77.1365 20.456 77.1365 21.392V26H75.2285ZM91.7167 29.96V17.072H93.4267L93.6247 18.458C93.9127 18.038 94.3087 17.666 94.8127 17.342C95.3167 17.018 95.9647 16.856 96.7567 16.856C97.6207 16.856 98.3827 17.06 99.0427 17.468C99.7027 17.876 100.219 18.434 100.591 19.142C100.975 19.85 101.167 20.654 101.167 21.554C101.167 22.454 100.975 23.258 100.591 23.966C100.219 24.662 99.7027 25.214 99.0427 25.622C98.3827 26.018 97.6147 26.216 96.7387 26.216C96.0427 26.216 95.4247 26.078 94.8847 25.802C94.3567 25.526 93.9367 25.136 93.6247 24.632V29.96H91.7167ZM96.4147 24.56C97.2307 24.56 97.9027 24.284 98.4307 23.732C98.9587 23.168 99.2227 22.436 99.2227 21.536C99.2227 20.948 99.1027 20.426 98.8627 19.97C98.6227 19.514 98.2927 19.16 97.8727 18.908C97.4527 18.644 96.9667 18.512 96.4147 18.512C95.5987 18.512 94.9267 18.794 94.3987 19.358C93.8827 19.922 93.6247 20.648 93.6247 21.536C93.6247 22.436 93.8827 23.168 94.3987 23.732C94.9267 24.284 95.5987 24.56 96.4147 24.56ZM106.254 26.216C105.498 26.216 104.874 26.09 104.382 25.838C103.89 25.586 103.524 25.256 103.284 24.848C103.044 24.428 102.924 23.972 102.924 23.48C102.924 22.616 103.26 21.932 103.932 21.428C104.604 20.924 105.564 20.672 106.812 20.672H109.152V20.51C109.152 19.814 108.96 19.292 108.576 18.944C108.204 18.596 107.718 18.422 107.118 18.422C106.59 18.422 106.128 18.554 105.732 18.818C105.348 19.07 105.114 19.448 105.03 19.952H103.122C103.182 19.304 103.398 18.752 103.77 18.296C104.154 17.828 104.634 17.474 105.21 17.234C105.798 16.982 106.44 16.856 107.136 16.856C108.384 16.856 109.35 17.186 110.034 17.846C110.718 18.494 111.06 19.382 111.06 20.51V26H109.404L109.242 24.47C108.99 24.962 108.624 25.376 108.144 25.712C107.664 26.048 107.034 26.216 106.254 26.216ZM106.632 24.668C107.148 24.668 107.58 24.548 107.928 24.308C108.288 24.056 108.564 23.726 108.756 23.318C108.96 22.91 109.086 22.46 109.134 21.968H107.01C106.254 21.968 105.714 22.1 105.39 22.364C105.078 22.628 104.922 22.958 104.922 23.354C104.922 23.762 105.072 24.086 105.372 24.326C105.684 24.554 106.104 24.668 106.632 24.668ZM113.285 26V17.072H114.977L115.121 18.638C115.397 18.086 115.799 17.654 116.327 17.342C116.867 17.018 117.485 16.856 118.181 16.856C119.261 16.856 120.107 17.192 120.719 17.864C121.343 18.536 121.655 19.538 121.655 20.87V26H119.765V21.068C119.765 19.34 119.057 18.476 117.641 18.476C116.933 18.476 116.345 18.728 115.877 19.232C115.421 19.736 115.193 20.456 115.193 21.392V26H113.285ZM124.665 29.96L126.807 25.262H126.285L122.757 17.072H124.827L127.563 23.678L130.425 17.072H132.441L126.681 29.96H124.665Z" fill="white"/>
</svg>
