<svg width="20" height="21" viewBox="0 0 20 21" fill="none" xmlns="http://www.w3.org/2000/svg">
<path d="M18.9655 3.46436H1.03448C0.45977 3.46436 0 3.92413 0 4.49884V14.4529C0 15.0276 0.45977 15.4873 1.03448 15.4873H7.97701H9.70115H10.2989H12.023H18.9655C19.5402 15.4873 20 15.0276 20 14.4529V4.49884C20 3.92413 19.5402 3.46436 18.9655 3.46436Z" fill="white"/>
<path d="M2.04592 10.0391H3.4942C3.65512 10.0391 3.79305 9.90118 3.79305 9.74026C3.79305 9.57934 3.65512 9.44141 3.4942 9.44141H2.04592C1.885 9.44141 1.74707 9.57934 1.74707 9.74026C1.74707 9.90118 1.885 10.0391 2.04592 10.0391Z" fill="#C0C0C0"/>
<path d="M4.62063 10.0391H17.954C18.1149 10.0391 18.2528 9.90118 18.2528 9.74026C18.2528 9.57934 18.1149 9.44141 17.954 9.44141H4.62063C4.45971 9.44141 4.32178 9.57934 4.32178 9.74026C4.32178 9.90118 4.45971 10.0391 4.62063 10.0391Z" fill="#C0C0C0"/>
<path d="M17.954 10.6367H2.04592C1.885 10.6367 1.74707 10.7746 1.74707 10.9356C1.74707 11.0965 1.885 11.2344 2.04592 11.2344H17.954C18.1149 11.2344 18.2528 11.0965 18.2528 10.9356C18.2528 10.7746 18.1149 10.6367 17.954 10.6367Z" fill="#C0C0C0"/>
<path d="M17.954 11.832H2.04592C1.885 11.832 1.74707 11.97 1.74707 12.1309C1.74707 12.2918 1.885 12.4297 2.04592 12.4297H17.954C18.1149 12.4297 18.2528 12.2918 18.2528 12.1309C18.2528 11.97 18.1149 11.832 17.954 11.832Z" fill="#C0C0C0"/>
<path d="M17.954 13.0273H2.04592C1.885 13.0273 1.74707 13.1653 1.74707 13.3262C1.74707 13.4871 1.885 13.625 2.04592 13.625H17.954C18.1149 13.625 18.2528 13.4871 18.2528 13.3262C18.2528 13.1653 18.1149 13.0273 17.954 13.0273Z" fill="#C0C0C0"/>
<path d="M6.21727 5.06206H7.27019C7.38719 5.06206 7.48747 4.92413 7.48747 4.76321C7.48747 4.60229 7.38719 4.46436 7.27019 4.46436H6.21727C6.10028 4.46436 6 4.60229 6 4.76321C6 4.92413 6.10028 5.06206 6.21727 5.06206Z" fill="#C0C0C0"/>
<path d="M8.08934 5.06206H17.7829C17.8999 5.06206 18.0002 4.92413 18.0002 4.76321C18.0002 4.60229 17.8999 4.46436 17.7829 4.46436H8.08934C7.97235 4.46436 7.87207 4.60229 7.87207 4.76321C7.87207 4.92413 7.97235 5.06206 8.08934 5.06206Z" fill="#C0C0C0"/>
<path d="M17.7827 5.65967H6.21727C6.10028 5.65967 6 5.7976 6 5.95852C6 6.11944 6.10028 6.25737 6.21727 6.25737H17.7827C17.8997 6.25737 18 6.11944 18 5.95852C18 5.7976 17.8997 5.65967 17.7827 5.65967Z" fill="#C0C0C0"/>
<path d="M17.7827 6.85498H6.21727C6.10028 6.85498 6 6.99291 6 7.15383C6 7.31475 6.10028 7.45268 6.21727 7.45268H17.7827C17.8997 7.45268 18 7.31475 18 7.15383C18 6.99291 17.8997 6.85498 17.7827 6.85498Z" fill="#C0C0C0"/>
<path d="M17.7827 8.05029H6.21727C6.10028 8.05029 6 8.18822 6 8.34914C6 8.51006 6.10028 8.64799 6.21727 8.64799H17.7827C17.8997 8.64799 18 8.51006 18 8.34914C18 8.18822 17.8997 8.05029 17.7827 8.05029Z" fill="#C0C0C0"/>
<path d="M3.14937 8.10782C3.92384 8.10782 4.55167 7.47999 4.55167 6.70552C4.55167 5.93105 3.92384 5.30322 3.14937 5.30322C2.3749 5.30322 1.74707 5.93105 1.74707 6.70552C1.74707 7.47999 2.3749 8.10782 3.14937 8.10782Z" fill="#13242C"/>
</svg>
