<svg width="20" height="21" viewBox="0 0 20 21" fill="none" xmlns="http://www.w3.org/2000/svg">
<path d="M13.45 5.34986L15.675 7.57486C16.175 8.04986 16.175 8.84986 15.675 9.32486L9.875 15.0999V9.82486V7.14986L11.675 5.32486C12.15 4.84986 12.975 4.84986 13.45 5.34986Z" fill="white"/>
<path d="M7.375 3H4.25C3.55 3 3 3.55 3 4.25V15.2C3 16.75 4.25 18 5.8 18C7.35 18 8.6 16.75 8.6 15.2V4.25C8.625 3.55 8.05 3 7.375 3ZM5.8 16.45C5.1 16.45 4.55 15.9 4.55 15.2C4.55 14.5 5.1 13.95 5.8 13.95C6.5 13.95 7.05 14.5 7.05 15.2C7.05 15.9 6.5 16.45 5.8 16.45Z" fill="white"/>
<path d="M16.7497 12.375H14.5497L13.0497 13.875H16.4997L16.4747 16.5H10.4497L8.94971 18H16.7497C17.4497 18 17.9997 17.45 17.9997 16.75V13.625C17.9997 12.95 17.4497 12.375 16.7497 12.375Z" fill="white"/>
</svg>
