<svg width="23" height="43" viewBox="0 0 23 43" fill="none" xmlns="http://www.w3.org/2000/svg">
<path d="M9.85316 32.1494V22.2963C6.77946 21.4184 4.52694 20.0895 3.09162 18.3098C1.65729 16.5301 0.940624 14.3702 0.940624 11.83C0.940624 9.25793 1.75085 7.09898 3.3743 5.35011C4.99675 3.60324 7.15571 2.59592 9.85416 2.32817V0H13.2643V2.32817C15.7567 2.62578 17.7405 3.47683 19.2136 4.8803C20.6858 6.28377 21.6274 8.16103 22.0355 10.5121L16.0862 11.2895C15.7248 9.43909 14.7842 8.18492 13.2643 7.52599V16.7212C17.0258 17.7405 19.5899 19.0613 20.9535 20.6838C22.3172 22.3052 23 24.3875 23 26.9267C23 29.7645 22.142 32.1564 20.424 34.1004C18.707 36.0443 16.3211 37.2358 13.2643 37.6747V42.0723H9.85416V37.7912C7.14078 37.4627 4.93902 36.4504 3.2459 34.7573C1.55278 33.0652 0.469814 30.6743 0 27.5857L6.13844 26.9267C6.38828 28.1809 6.85809 29.2639 7.54988 30.1726C8.23867 31.0834 9.0061 31.7423 9.85316 32.1494ZM9.85316 7.45631C8.92747 7.76985 8.1899 8.30238 7.64245 9.05587C7.093 9.80837 6.81928 10.6385 6.81928 11.5483C6.81928 12.3794 7.06911 13.1508 7.57177 13.8655C8.07344 14.5792 8.8339 15.1555 9.85316 15.5945V7.45631ZM13.2633 32.4789C14.4378 32.2589 15.3944 31.7145 16.132 30.8435C16.8685 29.9746 17.2378 28.9503 17.2378 27.7738C17.2378 26.7237 16.9273 25.8189 16.3091 25.0574C15.69 24.297 14.6757 23.7137 13.2643 23.3056L13.2633 32.4789Z" fill="white"/>
</svg>
