<svg width="16" height="13" viewBox="0 0 16 13" fill="none" xmlns="http://www.w3.org/2000/svg">
<path d="M3.68421 7.58766C4.056 7.58754 4.4141 7.72796 4.68672 7.98076C4.95934 8.23357 5.12633 8.58007 5.15421 8.95082L5.1579 9.06134V11.2719C5.15801 11.6437 5.0176 12.0018 4.76479 12.2744C4.51199 12.547 4.16548 12.714 3.79474 12.7419L3.68421 12.7456H1.47368C1.10189 12.7457 0.743793 12.6053 0.471175 12.3525C0.198557 12.0996 0.0315688 11.7531 0.00368437 11.3824L7.38817e-08 11.2719V9.06134C-0.000117585 8.68955 0.140299 8.33145 0.393103 8.05883C0.645907 7.78622 0.992412 7.61923 1.36316 7.59134L1.47368 7.58766H3.68421ZM12.3158 10.535C12.5036 10.5352 12.6842 10.6072 12.8208 10.7361C12.9574 10.865 13.0395 11.0412 13.0505 11.2287C13.0616 11.4162 13.0006 11.6008 12.88 11.7448C12.7595 11.8888 12.5885 11.9814 12.402 12.0036L12.3158 12.0087H7.36842C7.18061 12.0085 6.99998 11.9366 6.86341 11.8077C6.72685 11.6787 6.64467 11.5025 6.63366 11.3151C6.62266 11.1276 6.68365 10.943 6.80419 10.7989C6.92474 10.6549 7.09572 10.5624 7.28221 10.5402L7.36842 10.535H12.3158ZM15.2632 7.58766C15.4586 7.58766 15.646 7.66529 15.7842 7.80348C15.9224 7.94166 16 8.12908 16 8.3245C16 8.51992 15.9224 8.70734 15.7842 8.84553C15.646 8.98371 15.4586 9.06134 15.2632 9.06134H7.36842C7.173 9.06134 6.98558 8.98371 6.84739 8.84553C6.70921 8.70734 6.63158 8.51992 6.63158 8.3245C6.63158 8.12908 6.70921 7.94166 6.84739 7.80348C6.98558 7.66529 7.173 7.58766 7.36842 7.58766H15.2632ZM3.68421 0.219238C4.07506 0.219238 4.44989 0.374501 4.72626 0.65087C5.00263 0.92724 5.1579 1.30208 5.1579 1.69292V3.90345C5.1579 4.29429 5.00263 4.66913 4.72626 4.9455C4.44989 5.22187 4.07506 5.37713 3.68421 5.37713H1.47368C1.08284 5.37713 0.708002 5.22187 0.431632 4.9455C0.155263 4.66913 7.38817e-08 4.29429 7.38817e-08 3.90345V1.69292C7.38817e-08 1.30208 0.155263 0.92724 0.431632 0.65087C0.708002 0.374501 1.08284 0.219238 1.47368 0.219238H3.68421ZM12.3158 3.16661C12.5036 3.16682 12.6842 3.23873 12.8208 3.36765C12.9574 3.49658 13.0395 3.67278 13.0505 3.86027C13.0616 4.04775 13.0006 4.23236 12.88 4.37638C12.7595 4.5204 12.5885 4.61295 12.402 4.63513L12.3158 4.64029H7.36842C7.18061 4.64008 6.99998 4.56817 6.86341 4.43925C6.72685 4.31032 6.64467 4.13411 6.63366 3.94663C6.62266 3.75915 6.68365 3.57454 6.80419 3.43052C6.92474 3.2865 7.09572 3.19395 7.28221 3.17176L7.36842 3.16661H12.3158ZM15.2632 0.219238C15.451 0.219447 15.6316 0.29136 15.7682 0.420284C15.9047 0.549209 15.9869 0.725414 15.9979 0.912898C16.0089 1.10038 15.9479 1.28499 15.8274 1.42901C15.7068 1.57303 15.5359 1.66558 15.3494 1.68776L15.2632 1.69292H7.36842C7.18061 1.69271 6.99998 1.6208 6.86341 1.49188C6.72685 1.36295 6.64467 1.18675 6.63366 0.999263C6.62266 0.81178 6.68365 0.627169 6.80419 0.483151C6.92474 0.339133 7.09572 0.246578 7.28221 0.224396L7.36842 0.219238H15.2632Z" fill="white"/>
</svg>
