<svg width="20" height="21" viewBox="0 0 20 21" fill="none" xmlns="http://www.w3.org/2000/svg">
<path d="M18.9655 3.46436H1.03448C0.45977 3.46436 0 3.92413 0 4.49884V14.4529C0 15.0276 0.45977 15.4873 1.03448 15.4873H7.97701L9.70115 18.0391C9.83908 18.246 10.1609 18.246 10.2989 18.0391L12.023 15.4873H18.9655C19.5402 15.4873 20 15.0276 20 14.4529V4.49884C20 3.92413 19.5402 3.46436 18.9655 3.46436Z" fill="white"/>
<path d="M2.04592 10.0391H3.4942C3.65512 10.0391 3.79305 9.90118 3.79305 9.74026C3.79305 9.57934 3.65512 9.44141 3.4942 9.44141H2.04592C1.885 9.44141 1.74707 9.57934 1.74707 9.74026C1.74707 9.90118 1.885 10.0391 2.04592 10.0391Z" fill="#C0C0C0"/>
<path d="M4.62063 10.0391H17.954C18.1149 10.0391 18.2528 9.90118 18.2528 9.74026C18.2528 9.57934 18.1149 9.44141 17.954 9.44141H4.62063C4.45971 9.44141 4.32178 9.57934 4.32178 9.74026C4.32178 9.90118 4.45971 10.0391 4.62063 10.0391Z" fill="#C0C0C0"/>
<path d="M17.954 10.6367H2.04592C1.885 10.6367 1.74707 10.7746 1.74707 10.9356C1.74707 11.0965 1.885 11.2344 2.04592 11.2344H17.954C18.1149 11.2344 18.2528 11.0965 18.2528 10.9356C18.2528 10.7746 18.1149 10.6367 17.954 10.6367Z" fill="#C0C0C0"/>
<path d="M17.954 11.832H2.04592C1.885 11.832 1.74707 11.97 1.74707 12.1309C1.74707 12.2918 1.885 12.4297 2.04592 12.4297H17.954C18.1149 12.4297 18.2528 12.2918 18.2528 12.1309C18.2528 11.97 18.1149 11.832 17.954 11.832Z" fill="#C0C0C0"/>
<path d="M17.954 13.0273H2.04592C1.885 13.0273 1.74707 13.1653 1.74707 13.3262C1.74707 13.4871 1.885 13.625 2.04592 13.625H17.954C18.1149 13.625 18.2528 13.4871 18.2528 13.3262C18.2528 13.1653 18.1149 13.0273 17.954 13.0273Z" fill="#C0C0C0"/>
<path d="M3.14937 8.10782C3.92384 8.10782 4.55167 7.47999 4.55167 6.70552C4.55167 5.93105 3.92384 5.30322 3.14937 5.30322C2.3749 5.30322 1.74707 5.93105 1.74707 6.70552C1.74707 7.47999 2.3749 8.10782 3.14937 8.10782Z" fill="#13242C"/>
<path d="M7.33322 6.45295L6.7815 6.38398L6.52863 5.87823C6.50564 5.83226 6.45966 5.83226 6.43667 5.87823L6.1838 6.38398L5.60909 6.45295C5.56311 6.45295 5.54012 6.52191 5.5861 6.5449L5.99989 6.9357L5.90794 7.51042C5.90794 7.55639 5.95391 7.57938 5.9769 7.57938L6.48265 7.30352L6.9884 7.57938C7.03437 7.60237 7.08035 7.55639 7.05736 7.51042L6.96541 6.9357L7.3792 6.5449C7.40219 6.52191 7.3792 6.47593 7.33322 6.45295Z" fill="#13242C"/>
<path d="M9.74733 6.45298L9.17261 6.36103L8.91974 5.85528C8.89675 5.80931 8.85077 5.80931 8.82778 5.85528L8.57491 6.36103L8.0002 6.45298C7.95422 6.45298 7.93123 6.52195 7.97721 6.54494L8.391 6.93574L8.29905 7.51046C8.29905 7.55643 8.34503 7.57942 8.36801 7.57942L8.87376 7.30356L9.37951 7.57942C9.42549 7.60241 9.47146 7.55643 9.44847 7.51046L9.35652 6.93574L9.77031 6.54494C9.7933 6.52195 9.7933 6.47597 9.74733 6.45298Z" fill="#13242C"/>
<path d="M12.138 6.45298L11.5632 6.36103L11.3104 5.85528C11.2874 5.80931 11.2414 5.80931 11.2184 5.85528L10.9655 6.36103L10.3908 6.45298C10.3448 6.45298 10.3219 6.52195 10.3678 6.54494L10.7816 6.93574L10.6897 7.51046C10.6897 7.55643 10.7357 7.57942 10.7586 7.57942L11.2644 7.30356L11.7701 7.57942C11.8161 7.60241 11.8621 7.55643 11.8391 7.51046L11.7471 6.93574L12.1609 6.54494C12.2069 6.52195 12.1839 6.47597 12.138 6.45298Z" fill="#13242C"/>
<path d="M14.5286 6.45298L13.9539 6.36103L13.701 5.85528C13.678 5.80931 13.632 5.80931 13.609 5.85528L13.3562 6.36103L12.7814 6.45298C12.7355 6.45298 12.7125 6.52195 12.7585 6.54494L13.1723 6.93574L13.0803 7.51046C13.0803 7.55643 13.1263 7.57942 13.1493 7.57942L13.655 7.30356L14.1608 7.57942C14.2067 7.60241 14.2527 7.55643 14.2297 7.51046L14.1378 6.93574L14.5516 6.54494C14.5975 6.52195 14.5746 6.47597 14.5286 6.45298Z" fill="#13242C"/>
<path d="M16.9426 6.45298L16.3679 6.36103L16.1151 5.85528C16.0921 5.80931 16.0461 5.80931 16.0231 5.85528L15.7472 6.38402L15.1955 6.45298C15.1495 6.45298 15.1265 6.52195 15.1725 6.54494L15.5863 6.93574L15.4944 7.51046C15.4944 7.55643 15.5403 7.57942 15.5633 7.57942L16.0691 7.30356L16.5748 7.57942C16.6208 7.60241 16.6668 7.55643 16.6438 7.51046L16.5518 6.93574L16.9656 6.54494C16.9886 6.52195 16.9886 6.47597 16.9426 6.45298Z" fill="#13242C"/>
</svg>
