<svg width="20" height="21" viewBox="0 0 20 21" fill="none" xmlns="http://www.w3.org/2000/svg">
<path d="M20 8.23359V6.23359C20 5.77205 19.6923 5.46436 19.2308 5.46436H14.3846C14.1538 5.92589 13.6154 6.23359 13.0769 6.23359C12.5385 6.23359 12 5.92589 11.7692 5.46436H0.769231C0.307692 5.46436 0 5.77205 0 6.23359V8.23359C0.923077 8.77205 1.53846 9.77205 1.53846 10.849C1.53846 11.9259 0.923077 13.0028 0 13.4644V15.4644C0 15.9259 0.307692 16.2336 0.769231 16.2336H11.7692C12 15.772 12.5385 15.4644 13.0769 15.4644C13.6154 15.4644 14.1538 15.772 14.3846 16.2336H19.2308C19.6923 16.2336 20 15.9259 20 15.4644V13.4644C19.0769 12.9259 18.4615 11.9259 18.4615 10.849C18.4615 9.77205 19.0769 8.69513 20 8.23359Z" fill="white"/>
<path d="M13.0771 7.77197V10.0797" stroke="#13242C" stroke-miterlimit="10" stroke-linecap="round" stroke-linejoin="round"/>
<path d="M13.0771 13.9259V11.6182" stroke="#13242C" stroke-miterlimit="10" stroke-linecap="round" stroke-linejoin="round"/>
</svg>
