<svg width="20" height="22" viewBox="0 0 20 22" fill="none" xmlns="http://www.w3.org/2000/svg">
<path d="M10.0038 8.14734C9.2982 8.14734 8.6374 8.4211 8.13708 8.92142C7.63912 9.42174 7.363 10.0825 7.363 10.7882C7.363 11.4938 7.63912 12.1546 8.13708 12.6549C8.6374 13.1529 9.2982 13.429 10.0038 13.429C10.7095 13.429 11.3703 13.1529 11.8706 12.6549C12.3686 12.1546 12.6447 11.4938 12.6447 10.7882C12.6447 10.0825 12.3686 9.42174 11.8706 8.92142C11.6262 8.67517 11.3354 8.47994 11.0149 8.34705C10.6944 8.21416 10.3508 8.14628 10.0038 8.14734ZM19.7341 13.7051L18.1907 12.3859C18.2638 11.9375 18.3016 11.4797 18.3016 11.0242C18.3016 10.5687 18.2638 10.1085 18.1907 9.66246L19.7341 8.34322C19.8507 8.24341 19.9342 8.11047 19.9734 7.96208C20.0126 7.81369 20.0057 7.65688 19.9536 7.5125L19.9324 7.45114C19.5076 6.26333 18.8711 5.16231 18.0538 4.20142L18.0113 4.15186C17.9121 4.03516 17.7798 3.95127 17.6319 3.91125C17.4841 3.87123 17.3275 3.87695 17.183 3.92766L15.2666 4.6097C14.5586 4.02914 13.7704 3.5713 12.9161 3.2527L12.5456 1.24906C12.5176 1.09812 12.4444 0.959254 12.3356 0.850919C12.2269 0.742584 12.0877 0.669904 11.9367 0.642536L11.873 0.630736C10.6458 0.408895 9.35248 0.408895 8.12528 0.630736L8.06156 0.642536C7.91051 0.669904 7.77136 0.742584 7.66261 0.850919C7.55385 0.959254 7.48063 1.09812 7.45268 1.24906L7.0798 3.26214C6.23357 3.58328 5.44525 4.04001 4.74575 4.61442L2.81527 3.92766C2.67076 3.87655 2.51411 3.87062 2.36615 3.91067C2.21819 3.95071 2.08592 4.03484 1.98691 4.15186L1.94443 4.20142C1.12856 5.16333 0.492255 6.26408 0.0658702 7.45114L0.0446302 7.5125C-0.0615699 7.8075 0.0257502 8.1379 0.26411 8.34322L1.82643 9.67662C1.75327 10.1203 1.71787 10.5734 1.71787 11.0218C1.71787 11.4749 1.75327 11.9281 1.82643 12.367L0.26883 13.7004C0.152236 13.8002 0.0687882 13.9332 0.0295827 14.0816C-0.00962273 14.23 -0.00272807 14.3868 0.0493501 14.5311L0.0705902 14.5925C0.497751 15.7796 1.12787 16.877 1.94915 17.8422L1.99163 17.8918C2.09088 18.0085 2.22316 18.0924 2.37103 18.1324C2.5189 18.1724 2.67543 18.1667 2.81999 18.116L4.75047 17.4292C5.45375 18.0074 6.23728 18.4653 7.08452 18.7815L7.4574 20.7946C7.48535 20.9455 7.55857 21.0844 7.66733 21.1927C7.77608 21.3011 7.91523 21.3737 8.06628 21.4011L8.13 21.4129C9.36927 21.6359 10.6384 21.6359 11.8777 21.4129L11.9414 21.4011C12.0924 21.3737 12.2316 21.3011 12.3404 21.1927C12.4491 21.0844 12.5223 20.9455 12.5503 20.7946L12.9208 18.791C13.7751 18.47 14.5634 18.0145 15.2714 17.434L17.1877 18.116C17.3322 18.1671 17.4888 18.173 17.6368 18.133C17.7848 18.0929 17.917 18.0088 18.016 17.8918L18.0585 17.8422C18.8798 16.8723 19.5099 15.7796 19.9371 14.5925L19.9583 14.5311C20.0598 14.2385 19.9725 13.9105 19.7341 13.7051ZM10.0038 14.9371C7.71228 14.9371 5.85496 13.0797 5.85496 10.7882C5.85496 8.49662 7.71228 6.6393 10.0038 6.6393C12.2954 6.6393 14.1527 8.49662 14.1527 10.7882C14.1527 13.0797 12.2954 14.9371 10.0038 14.9371Z" fill="white"/>
</svg>
