<svg width="20" height="22" viewBox="0 0 20 22" fill="none" xmlns="http://www.w3.org/2000/svg">
<path d="M18.5714 0.464355H1.42857C1.04969 0.464355 0.686328 0.587272 0.418419 0.806064C0.15051 1.02486 0 1.3216 0 1.63102V20.2977C0 20.6071 0.15051 20.9039 0.418419 21.1226C0.686328 21.3414 1.04969 21.4644 1.42857 21.4644H18.5714C18.9503 21.4644 19.3137 21.3414 19.5816 21.1226C19.8495 20.9039 20 20.6071 20 20.2977V1.63102C20 1.3216 19.8495 1.02486 19.5816 0.806064C19.3137 0.587272 18.9503 0.464355 18.5714 0.464355ZM5.71429 17.9445C5.71429 18.2539 5.56378 18.5507 5.29587 18.7695C5.02796 18.9883 4.66459 19.1112 4.28571 19.1112C3.90683 19.1112 3.54347 18.9883 3.27556 18.7695C3.00765 18.5507 2.85714 18.2539 2.85714 17.9445V15.6112C2.85714 15.3018 3.00765 15.005 3.27556 14.7862C3.54347 14.5674 3.90683 14.4445 4.28571 14.4445C4.66459 14.4445 5.02796 14.5674 5.29587 14.7862C5.56378 15.005 5.71429 15.3018 5.71429 15.6112V17.9445ZM2.85714 6.88102C2.85714 6.10747 3.23342 5.36561 3.90319 4.81863C4.57296 4.27165 5.48137 3.96436 6.42857 3.96436V6.88102H10C10 7.65457 9.62373 8.39644 8.95395 8.94342C8.28418 9.4904 7.37577 9.79769 6.42857 9.79769C5.48137 9.79769 4.57296 9.4904 3.90319 8.94342C3.23342 8.39644 2.85714 7.65457 2.85714 6.88102ZM11.4286 17.927C11.4286 18.2364 11.2781 18.5332 11.0102 18.752C10.7422 18.9708 10.3789 19.0937 10 19.0937C9.62112 19.0937 9.25776 18.9708 8.98985 18.752C8.72194 18.5332 8.57143 18.2364 8.57143 17.927V12.0937C8.57143 11.7843 8.72194 11.4875 8.98985 11.2687C9.25776 11.0499 9.62112 10.927 10 10.927C10.3789 10.927 10.7422 11.0499 11.0102 11.2687C11.2781 11.4875 11.4286 11.7843 11.4286 12.0937V17.927ZM7.85714 5.71436V2.79769C8.80435 2.79769 9.71275 3.10498 10.3825 3.65196C11.0523 4.19894 11.4286 4.94081 11.4286 5.71436H7.85714ZM17.1429 17.9644C17.1429 18.2738 16.9923 18.5705 16.7244 18.7893C16.4565 19.0081 16.0932 19.131 15.7143 19.131C15.3354 19.131 14.972 19.0081 14.7041 18.7893C14.4362 18.5705 14.2857 18.2738 14.2857 17.9644V5.13102C14.2857 4.8216 14.4362 4.52486 14.7041 4.30606C14.972 4.08727 15.3354 3.96436 15.7143 3.96436C16.0932 3.96436 16.4565 4.08727 16.7244 4.30606C16.9923 4.52486 17.1429 4.8216 17.1429 5.13102V17.9644Z" fill="white"/>
</svg>
